<svg width="80" height="64" viewBox="0 0 80 64" fill="none" xmlns="http://www.w3.org/2000/svg">
<g clip-path="url(#clip0_60_5431)">
<path d="M79.4895 15.8379V14.7603C79.1368 13.7293 78.3995 13.1381 77.3591 12.8468C76.7442 12.675 76.1496 12.4216 75.5464 12.2061C64.4514 8.27435 53.3535 4.34261 42.2615 0.402128C40.7198 -0.145403 39.2014 -0.133754 37.6685 0.425427C35.7392 1.12732 33.8011 1.79426 31.866 2.47867C30.0037 3.13687 28.1415 3.79799 26.2821 4.46201C25.4282 4.76782 25.0901 5.33573 25.3349 6.02889C25.571 6.69874 26.1976 6.91717 27.0632 6.63175C27.136 6.60845 27.2118 6.58807 27.2847 6.56186C30.9101 5.27749 34.5472 4.01642 38.1581 2.69127C39.4084 2.23112 40.577 2.23403 41.8273 2.67963C53.3769 6.79776 64.9323 10.8897 76.4877 14.9903C76.6917 15.0632 76.887 15.1534 77.2075 15.2874C75.8145 15.7825 74.5642 16.2456 73.2965 16.6562C73.0837 16.7261 72.7223 16.6621 72.562 16.5164C70.6823 14.7981 68.4732 14.0904 65.9377 14.1079C59.4096 14.1487 52.8814 14.1224 46.3504 14.1224H45.4119C45.3449 13.6681 45.3274 13.2516 45.2108 12.8672C45.0855 12.4566 44.9107 12.043 44.6804 11.6819C42.6025 8.46074 37.3712 8.4753 35.2962 11.6993C33.9061 13.8574 34.8153 16.2339 37.3333 16.7232C38.6244 16.9766 40.0408 17.1776 41.2969 16.9125C44.2782 16.2834 47.2684 16.4728 50.2585 16.4349C52.418 16.4087 54.5776 16.4291 56.7371 16.4291C60.0799 16.4291 63.4197 16.4232 66.7625 16.4436C68.0448 16.4524 69.2018 16.8601 70.3267 17.6901C70.0645 17.8066 69.9129 17.8853 69.7526 17.9435C60.3509 21.2811 50.9463 24.6158 41.5446 27.9534C40.4838 28.3291 39.4492 28.3 38.3825 27.9214C27.2672 23.9693 16.146 20.0288 5.02773 16.0854C4.3312 15.8379 3.63467 15.5816 2.77202 15.267C3.215 15.101 3.4773 14.9991 3.73959 14.9059C9.66155 12.806 15.5835 10.7062 21.5055 8.60345C21.7474 8.51899 21.998 8.43744 22.2078 8.30056C22.7353 7.96272 22.8752 7.45596 22.645 6.89387C22.4235 6.3609 21.9747 6.12208 21.3977 6.22693C21.0975 6.27935 20.806 6.39876 20.5175 6.50069C14.6422 8.58306 8.77559 10.6858 2.89151 12.742C1.854 13.1031 0.991351 13.5837 0.507568 14.603V15.8349C0.898092 16.8455 1.66748 17.3669 2.67876 17.7134C6.0973 18.8871 9.49543 20.1278 12.9052 21.3306C13.2637 21.4588 13.5406 21.552 13.5376 22.0383C13.5231 27.9301 13.5289 33.8219 13.5289 39.5331C11.9289 40.0457 10.3289 40.3748 8.89216 41.0505C3.73667 43.4707 1.02632 49.1004 2.27075 54.5262C3.54724 60.083 8.40547 63.9915 14.1263 63.9944C34.4044 64.006 54.6825 64.0002 74.9606 63.9973C76.817 63.9973 77.9594 62.8935 78.0002 61.0645C78.0206 60.1413 78.0294 59.2181 77.9944 58.2948C77.9332 56.626 76.8083 55.5455 75.1325 55.5106C74.7974 55.5047 74.4651 55.5106 74.13 55.5106C72.9263 55.5106 72.1978 54.9135 72.1249 53.702C72.052 52.5021 72.055 51.2905 72.122 50.0906C72.189 48.8616 72.8855 48.2791 74.1067 48.2791C74.4651 48.2791 74.8265 48.2907 75.185 48.2762C76.8083 48.2034 77.9565 47.1054 77.9798 45.4919C77.9915 44.5541 78.0644 43.7357 78.7551 42.9756C79.3088 42.3669 79.2767 41.5136 79.0756 40.7039C78.4461 38.1701 77.837 35.6305 77.2075 33.0967C77.0968 32.6511 77.1288 32.3191 77.4553 31.923C79.2622 29.7213 78.4957 26.5322 75.8932 25.3468C75.5056 25.1692 75.2812 25.0148 75.2899 24.5255C75.3045 23.5557 75.3103 22.5684 75.1646 21.6131C75.0189 20.6666 74.6837 19.7492 74.4127 18.7561C75.3161 18.4299 76.2633 18.0367 77.2396 17.7455C78.2888 17.4338 79.0815 16.8863 79.4837 15.8437L79.4895 15.8379ZM15.8487 22.8888C15.8487 22.7664 15.872 22.6412 15.8924 22.4432C16.1431 22.5102 16.3617 22.5538 16.5657 22.6267C23.528 25.0935 30.4963 27.5515 37.4499 30.0475C39.149 30.6561 40.7868 30.6794 42.4859 30.0708C49.4192 27.5923 56.3612 25.143 63.3002 22.6849C63.5363 22.6004 63.7782 22.5276 64.1512 22.4082C64.1512 22.7548 64.1512 23.0227 64.1512 23.2878C64.1512 25.3905 64.1425 27.4933 64.1571 29.596C64.1629 30.5047 64.702 31.0231 65.4627 30.9212C66.1068 30.8367 66.4565 30.3678 66.4594 29.5028C66.4711 27.1962 66.506 24.8867 66.4419 22.5801C66.4186 21.7617 66.6809 21.4209 67.4474 21.1879C68.9861 20.719 70.4899 20.1307 72.0287 19.5861C72.6728 20.5268 72.8914 21.5374 72.9817 22.5917C73.0021 22.8218 72.9671 23.0548 72.9963 23.2819C73.1449 24.3916 72.8972 25.108 71.7519 25.7458C69.6011 26.9487 69.2193 29.9077 70.7668 31.8473C71.1107 32.2784 71.1865 32.6337 71.0466 33.1637C70.5337 35.1209 70.0674 37.0896 69.6098 39.0584C69.4962 39.5506 69.3271 39.8127 68.753 39.769C68.0157 39.7137 67.2696 39.7545 66.4565 39.7545C66.4565 38.1294 66.4711 36.6207 66.4507 35.1121C66.439 34.2384 65.9377 33.7054 65.2295 33.7462C64.6 33.7841 64.1658 34.2588 64.1512 35.0102C64.1279 36.2392 64.1454 37.4712 64.1396 38.7031C64.1337 39.6467 64.0288 39.7545 63.0642 39.7545C47.6647 39.7545 32.2682 39.7545 16.8688 39.7632C16.1751 39.7632 15.8225 39.5768 15.8254 38.8138C15.8429 33.5074 15.8342 28.1981 15.8371 22.8917L15.8487 22.8888ZM74.3894 45.9666C54.4931 45.9666 34.5968 45.9725 14.6976 45.955C13.0684 45.955 11.5879 46.2724 10.326 47.3413C8.44918 48.9344 7.74099 51.3895 8.4929 53.667C9.27394 56.029 11.3927 57.7007 13.9952 57.7764C17.1281 57.8667 20.2669 57.8143 23.4027 57.8026C24.1809 57.7997 24.6909 57.3104 24.7025 56.661C24.7142 55.9824 24.1867 55.5106 23.359 55.5077C20.4039 55.4989 17.4458 55.5018 14.4906 55.5047C13.3336 55.5047 12.3049 55.1727 11.5063 54.3107C10.4892 53.2098 10.2211 51.9225 10.7836 50.5362C11.3431 49.1615 12.4069 48.3956 13.9107 48.2849C14.1934 48.2645 14.4761 48.2733 14.7588 48.2733C32.9064 48.2733 51.057 48.2733 69.2047 48.2733H70.1227C69.9712 49.1062 69.8313 49.878 69.6739 50.7342H68.718C51.5466 50.7342 34.3753 50.7342 17.201 50.7342C16.8921 50.7342 16.5802 50.7197 16.2771 50.7546C15.6943 50.8216 15.3416 51.1624 15.2833 51.7477C15.2192 52.3681 15.5048 52.802 16.1052 52.9622C16.4199 53.0467 16.7667 53.0379 17.0961 53.0379C34.2937 53.0409 51.4913 53.0379 68.6889 53.0379H69.6681C69.8226 53.868 69.9654 54.6339 70.1256 55.4989H69.2484C56.0348 55.4989 42.8211 55.4989 29.6074 55.4989C29.4005 55.4989 29.1965 55.4989 28.9895 55.4989C28.0278 55.5077 27.4857 55.927 27.4974 56.6551C27.5091 57.3832 28.0511 57.8026 29.0187 57.8055C38.9421 57.8084 48.8654 57.8055 58.7859 57.8055C64.0551 57.8055 69.3242 57.8055 74.5963 57.8055C75.6425 57.8055 75.6746 57.8405 75.6804 58.886C75.6804 59.4743 75.6833 60.0656 75.6804 60.6539C75.6746 61.6237 75.6163 61.6761 74.6138 61.679C74.5875 61.679 74.5613 61.679 74.538 61.679C54.4348 61.679 34.3316 61.679 14.2313 61.679C9.3468 61.679 5.38911 58.4055 4.45069 53.6204C3.38404 48.1888 7.5399 42.6494 13.0655 42.1397C13.6542 42.0844 14.2458 42.0553 14.8345 42.0553C32.6237 42.0524 50.413 42.0524 68.2022 42.0524H69.0911C69.6594 43.992 71.0961 44.4988 72.9205 44.4027C73.8094 44.3561 74.7041 44.3939 75.5784 44.3939C75.832 45.8123 75.7125 45.955 74.3777 45.955L74.3894 45.9666Z" fill="#191C1C"/>
</g>
<defs>
<clipPath id="clip0_60_5431">
<rect width="78.979" height="64" fill="white" transform="translate(0.510498 0.000244141)"/>
</clipPath>
</defs>
</svg>
