<svg width="64" height="64" viewBox="0 0 64 64" fill="none" xmlns="http://www.w3.org/2000/svg">
<g clip-path="url(#clip0_60_5374)">
<path d="M37.0612 64.0003C36.6331 63.7565 36.2072 63.5128 35.7256 63.2381C36.1475 62.6309 36.5158 62.1022 36.9089 61.5343C37.0509 61.6417 37.1579 61.7904 37.2752 61.7986C37.5592 61.8151 37.9563 61.8688 38.1004 61.7119C38.2423 61.559 38.2423 61.0159 38.1024 60.9064C37.4768 60.4252 37.5365 59.8366 37.5962 59.1653C37.6456 58.6098 37.5283 58.0398 37.4768 57.3665C37.7197 57.6081 37.9213 57.8043 38.1189 58.0026C38.9523 58.839 39.7857 59.6734 40.6171 60.5119C40.9401 60.8383 41.29 60.9828 41.6501 60.5966C41.9896 60.2352 41.8209 59.9068 41.5204 59.6073C40.0326 58.1162 38.5469 56.6209 37.0612 55.1277C36.9274 54.9934 36.7875 54.8633 36.6702 54.7146C36.3142 54.2644 36.3389 53.7232 36.7216 53.3432C37.092 52.9756 37.6703 52.9508 38.0921 53.3184C38.4255 53.6096 38.7259 53.936 39.0387 54.2499C40.4812 55.6977 41.9258 57.1434 43.3642 58.5953C43.6914 58.9258 44.0557 59.1633 44.4528 58.7833C44.8644 58.3888 44.6072 58.0294 44.28 57.7031C43.0432 56.466 41.8126 55.2247 40.578 53.9835C40.473 53.8781 40.366 53.7769 40.2672 53.6675C39.8371 53.1883 39.8125 52.5935 40.1993 52.1928C40.6191 51.7571 41.2118 51.7653 41.7077 52.2589C43.1132 53.653 44.5063 55.0636 45.9036 56.466C46.0517 56.6147 46.202 56.7634 46.3481 56.9142C46.667 57.2467 47.0313 57.385 47.3831 57.0092C47.7103 56.6601 47.5519 56.3173 47.2514 56.0137C45.2965 54.0351 43.3457 52.0524 41.3908 50.0759C40.0573 48.7272 38.7095 47.393 37.3781 46.0423C36.8019 45.4578 36.1578 45.2079 35.3058 45.2286C32.8262 45.2885 30.3424 45.2369 27.8607 45.2534C26.4964 45.2637 25.4736 44.7412 24.8007 43.5206C24.7081 43.3512 24.3706 43.2356 24.1443 43.2335C20.8847 43.2149 17.6251 43.2211 14.3635 43.2211C14.1742 43.2211 13.9807 43.2397 13.7976 43.2067C13.2564 43.1075 12.9292 42.7874 12.9251 42.2153C12.921 41.6432 13.242 41.3169 13.7811 41.2116C13.9643 41.1764 14.1577 41.195 14.347 41.195C17.6066 41.195 20.8662 41.1888 24.1278 41.2033C24.5023 41.2033 24.7163 41.1228 24.9098 40.7593C25.4736 39.7039 26.4017 39.1772 27.5891 39.1731C31.1655 39.1607 34.7399 39.1669 38.3164 39.171C39.4318 39.171 40.4216 39.5407 41.2673 40.2698C42.0493 40.9431 42.8271 41.6226 43.5782 42.331C44.2429 42.9588 44.9961 43.25 45.9159 43.2335C47.7865 43.2005 49.6591 43.2211 51.5317 43.2252C52.3178 43.2252 52.789 43.6177 52.7849 44.2434C52.7808 44.8672 52.3095 45.2472 51.5193 45.2492C49.5418 45.2534 47.5642 45.2534 45.5887 45.2492C44.4281 45.2472 43.4054 44.861 42.5329 44.0927C41.7427 43.3967 40.9525 42.7007 40.1767 41.9881C39.5882 41.4511 38.9214 41.1888 38.1168 41.1909C34.6885 41.2033 31.2602 41.195 27.8319 41.1971C27.0129 41.1971 26.5725 41.542 26.5581 42.1802C26.5416 42.8473 26.9964 43.2211 27.8401 43.2211C31.1203 43.2232 34.4025 43.2211 37.6826 43.2211C38.8782 43.2211 39.0778 43.4359 39.0819 44.6482C39.0819 44.7887 39.1889 44.958 39.2959 45.0654C42.2386 48.0539 45.1813 51.0404 48.1445 54.0062C48.3215 54.1838 48.6569 54.2788 48.9203 54.285C50.2661 54.3119 51.6119 54.2995 52.9578 54.2974C53.4866 54.2974 53.9208 54.4647 54.0937 55.0099C54.3097 55.6894 53.8447 56.2946 53.0606 56.3131C51.9268 56.34 50.7929 56.3193 49.6138 56.3193C49.5912 56.563 49.5768 56.7655 49.55 56.9658C49.3833 58.2649 48.303 59.1963 46.9387 59.2686C46.7452 59.2789 46.4859 59.4297 46.383 59.5929C45.8583 60.4458 45.1442 60.9415 44.1277 60.9952C43.9548 61.0035 43.7161 61.1047 43.6318 61.2389C42.6646 62.7611 41.7509 63.1225 40.2549 62.6619C39.4997 63.1514 38.8494 63.5727 38.1991 63.9941H37.0632L37.0612 64.0003Z" fill="#191C1C"/>
<path d="M29.5132 53.8348C30.8919 53.8967 31.8488 54.5101 32.392 55.7741C32.4599 55.9311 32.7707 56.0343 32.9826 56.0653C34.8058 56.3338 36.02 57.8828 35.5199 59.5722C35.1042 60.9787 34.2544 62.2199 33.0341 63.0523C31.5915 64.0374 29.6099 63.3827 28.8979 61.7759C28.7374 61.4103 28.5583 61.2843 28.1756 61.2472C26.98 61.1336 26.1445 60.4871 25.7247 59.3574C25.6095 59.0497 25.4757 58.9526 25.1568 58.9154C24.0497 58.7895 23.2286 58.2153 22.7944 57.1744C22.6606 56.8522 22.5001 56.7592 22.1606 56.72C19.7674 56.435 18.7138 54.0661 20.0781 52.073C20.4238 51.5691 20.7675 51.0631 21.1296 50.5736C22.5516 48.6488 25.2555 48.9524 26.2598 51.1313C26.3359 51.2965 26.554 51.4886 26.7207 51.5051C28.1715 51.6373 29.0748 52.4138 29.509 53.8348H29.5132ZM31.7191 61.4578C31.8385 61.3752 32.1245 61.2596 32.2933 61.0489C32.7007 60.5408 33.0629 59.9956 33.423 59.4504C33.7049 59.0208 33.6741 58.5932 33.2481 58.2773C32.8118 57.9551 32.3468 58.0067 32.0134 58.426C31.5689 58.9857 31.1512 59.5722 30.7808 60.1835C30.4227 60.7742 30.8672 61.4702 31.7191 61.4578ZM28.6365 59.2459C28.76 59.1633 29.0481 59.0497 29.2168 58.839C29.6243 58.331 29.9865 57.7857 30.3445 57.2405C30.6264 56.8109 30.5914 56.3813 30.1675 56.0694C29.7333 55.7514 29.2662 55.7968 28.9329 56.2181C28.4904 56.7778 28.0747 57.3644 27.7064 57.9757C27.3463 58.5747 27.7846 59.2562 28.6365 59.2438V59.2459ZM22.5433 54.7125C22.673 54.6258 22.9631 54.5142 23.1339 54.3036C23.5414 53.7976 23.9015 53.2503 24.2637 52.7071C24.5497 52.2775 24.5188 51.8541 24.097 51.5319C23.6628 51.1994 23.1977 51.249 22.8623 51.6662C22.4158 52.2217 22.0021 52.8124 21.6317 53.4238C21.2716 54.0206 21.7058 54.7167 22.5413 54.7146L22.5433 54.7125ZM27.5953 54.3036C27.408 54.0909 27.2269 53.7005 26.9882 53.6592C26.6528 53.6014 26.1651 53.6943 25.9367 53.9194C25.4942 54.3552 25.1794 54.9232 24.8255 55.4457C24.4509 55.9971 24.5065 56.4556 24.9633 56.7634C25.3975 57.0546 25.912 56.941 26.2762 56.4474C26.6384 55.9558 26.9841 55.454 27.3216 54.9459C27.4224 54.7931 27.4697 54.6051 27.5953 54.3057V54.3036Z" fill="#191C1C"/>
<path d="M17.8062 51.8377C17.6642 52.5316 17.5346 53.1636 17.3926 53.8637C16.5386 53.8637 15.662 53.8637 14.7833 53.8637C13.6906 53.8637 12.5979 53.872 11.5052 53.8596C10.8097 53.8513 10.394 53.4486 10.4022 52.8331C10.4105 52.2425 10.8117 51.8438 11.4723 51.8397C13.5733 51.8273 15.6743 51.8356 17.8062 51.8356V51.8377Z" fill="#191C1C"/>
<path d="M44.8849 24.2016C44.8787 22.539 44.14 21.2854 42.6769 20.4965C41.401 19.8087 40.1046 19.154 38.8226 18.4786C38.5633 18.3423 38.304 18.1957 38.0736 18.0139C37.2895 17.3943 37.0632 16.1696 37.4501 15.2753C37.8081 14.4492 38.1435 13.5962 38.339 12.7205C38.5613 11.7209 40.3413 1.49348 30.8321 3.21183C24.6237 4.33329 26.7679 13.3505 27.1713 14.2984C27.552 15.1948 27.5458 15.9486 27.2145 16.814C26.9449 17.5224 26.5581 18.0573 25.8707 18.4002C24.5743 19.0487 23.2985 19.7385 22.0103 20.4056C20.4175 21.2296 19.6356 22.5349 19.6397 24.3359C19.6479 27.628 19.6417 30.9222 19.6438 34.2143C19.6438 34.4043 19.6253 34.6005 19.6664 34.7822C19.7837 35.2924 20.113 35.6001 20.6418 35.6063C21.1707 35.6125 21.5082 35.3068 21.6337 34.8008C21.6831 34.6005 21.6625 34.3816 21.6625 34.1709C21.6625 31.4054 21.6625 28.64 21.6646 25.8745C21.6646 25.6763 21.6831 25.478 21.6975 25.1827C22.3828 25.7258 22.9775 26.2215 23.5989 26.6779C24.0311 26.996 24.1998 27.3863 24.1936 27.9213C24.1751 30.0527 24.1833 32.1861 24.1875 34.3175C24.1875 35.1519 24.5784 35.6331 25.2246 35.6146C25.846 35.596 26.202 35.1333 26.2041 34.3217C26.2082 32.2109 26.1794 30.1002 26.2144 27.9894C26.235 26.7461 25.7843 25.7899 24.8007 25.0463C23.8952 24.3627 23.0186 23.6399 22.0206 22.8468C22.3683 22.5989 22.6215 22.378 22.9096 22.2231C24.171 21.5518 25.4509 20.9116 26.7062 20.23C27.0437 20.0462 27.2392 20.0793 27.5046 20.3519C28.62 21.5023 29.7477 22.6382 30.898 23.7535C31.1861 24.0323 31.2211 24.2739 31.1058 24.6333C30.4247 26.7812 29.7703 28.9395 29.085 31.0853C28.9184 31.612 29.0048 32.0271 29.3896 32.4092C30.1551 33.163 30.9062 33.9313 31.6738 34.6831C32.2705 35.2676 32.7644 35.2635 33.3694 34.6748C34.0938 33.9685 34.7872 33.2312 35.5239 32.5393C36.0178 32.0767 36.1228 31.5893 35.9149 30.9469C35.2338 28.8424 34.5794 26.7296 33.9415 24.6126C33.8777 24.3978 33.9003 24.0426 34.0382 23.9001C35.1576 22.727 36.3059 21.5807 37.4706 20.4489C37.5859 20.3374 37.8987 20.2961 38.0468 20.3705C39.3062 21.0004 40.5532 21.6551 41.792 22.3243C42.0307 22.4523 42.2262 22.6671 42.4773 22.8736C41.4525 23.6874 40.5162 24.435 39.5758 25.1765C38.7444 25.8312 38.3143 26.6759 38.3205 27.7457C38.3287 28.9704 38.3205 30.1952 38.3205 31.4178C38.3205 32.4732 38.2793 33.5307 38.3493 34.5819C38.3699 34.9 38.6353 35.311 38.907 35.4679C39.1519 35.6084 39.6704 35.5774 39.8742 35.3977C40.1314 35.1746 40.3125 34.7265 40.3207 34.3712C40.3598 32.2192 40.333 30.0651 40.3495 27.913C40.3495 27.6301 40.368 27.2438 40.5409 27.0827C41.2488 26.4239 42.0225 25.8332 42.8662 25.1413C42.8662 28.3157 42.8662 31.3125 42.8662 34.3093C42.8662 35.1519 43.2469 35.629 43.8931 35.6166C44.5186 35.6042 44.8829 35.1416 44.8829 34.3341C44.8849 30.9573 44.8911 27.5784 44.8808 24.2016H44.8849ZM32.6451 4.69059C35.3326 4.69059 37.5097 7.31354 37.5097 10.5499C37.5097 13.7862 35.3305 16.4092 32.6451 16.4092C29.9596 16.4092 27.7804 13.7862 27.7804 10.5499C27.7804 7.31354 29.9596 4.69059 32.6451 4.69059ZM32.394 22.4172C31.256 21.2709 30.0687 20.0751 28.8854 18.8814C28.7969 18.7926 28.7208 18.6934 28.6364 18.5964C28.8072 18.2225 28.9719 17.8652 29.1385 17.4997C31.5091 19.4514 33.6678 19.1457 35.489 17.8301C35.6803 18.173 35.8696 18.5117 36.0425 18.8194C34.8407 20.0049 33.6493 21.178 32.394 22.4172Z" fill="#191C1C"/>
<path d="M63.9919 22.2478C63.9857 20.5852 63.2469 19.3315 61.7838 18.5426C60.508 17.8548 59.2116 17.2001 57.9296 16.5248C57.6703 16.3885 57.411 16.2418 57.1805 16.0601C56.3965 15.4405 56.1701 14.2158 56.557 13.3215C56.9151 12.4953 57.2505 11.6424 57.446 10.7667C57.6682 9.76707 59.4482 -0.460374 49.9391 1.25797C43.7307 2.37943 45.8749 11.3966 46.2782 12.3446C46.6589 13.2409 46.6527 13.9948 46.3214 14.8601C46.0519 15.5685 45.665 16.1035 44.9777 16.4463C43.9652 16.9523 42.9651 17.4852 41.9609 18.0097C42.5783 18.4786 43.2224 18.9102 43.9035 19.284C44.5414 18.9536 45.1794 18.6211 45.8132 18.2762C46.1506 18.0924 46.3461 18.1254 46.6116 18.398C47.7269 19.5484 48.8546 20.6843 50.0049 21.7996C50.293 22.0784 50.328 22.3201 50.2128 22.6794C49.5316 24.8273 48.8772 26.9856 48.192 29.1315C48.0253 29.6581 48.1117 30.0733 48.4965 30.4553C49.2621 31.2092 50.0132 31.9775 50.7807 32.7292C51.3775 33.3137 51.8714 33.3096 52.4764 32.721C53.2007 32.0146 53.8942 31.2773 54.6309 30.5854C55.1248 30.1228 55.2297 29.6354 55.0219 28.9931C54.3407 26.8885 53.6863 24.7757 53.0484 22.6588C52.9846 22.444 53.0073 22.0887 53.1451 21.9462C54.2646 20.7731 55.4129 19.6269 56.5776 18.4951C56.6928 18.3836 57.0056 18.3423 57.1538 18.4166C58.4131 19.0465 59.6602 19.7012 60.899 20.3704C61.1377 20.4984 61.3332 20.7132 61.5842 20.9198C60.5594 21.7335 59.6231 22.4812 58.6827 23.2226C57.8514 23.8773 57.4213 24.722 57.4275 25.7919C57.4357 27.0166 57.4275 28.2413 57.4275 29.464C57.4275 30.5194 57.3863 31.5768 57.4563 32.628C57.4768 32.9461 57.7423 33.3571 58.0139 33.5141C58.2588 33.6545 58.7774 33.6235 58.9811 33.4438C59.2383 33.2208 59.4194 32.7726 59.4276 32.4174C59.4667 30.2653 59.44 28.1112 59.4564 25.9591C59.4564 25.6762 59.475 25.29 59.6478 25.1289C60.3557 24.47 61.1295 23.8794 61.9732 23.1875C61.9732 26.3619 61.9732 29.3587 61.9732 32.3554C61.9732 33.1981 62.3538 33.6752 63 33.6628C63.6256 33.6504 63.9898 33.1877 63.9898 32.3802C63.9919 29.0034 63.998 25.6246 63.9878 22.2478H63.9919ZM51.752 2.73673C54.4395 2.73673 56.6167 5.35968 56.6167 8.59603C56.6167 11.8324 54.4374 14.4553 51.752 14.4553C49.0666 14.4553 46.8873 11.8324 46.8873 8.59603C46.8873 5.35968 49.0666 2.73673 51.752 2.73673ZM51.503 20.4633C50.365 19.3171 49.1777 18.1213 47.9944 16.9275C47.906 16.8387 47.8298 16.7396 47.7454 16.6425C47.9162 16.2687 48.0809 15.9114 48.2476 15.5458C50.6182 17.4975 52.7768 17.1919 54.598 15.8763C54.7893 16.2191 54.9787 16.5578 55.1515 16.8656C53.9497 18.0511 52.7583 19.2241 51.503 20.4633Z" fill="#191C1C"/>
<path d="M19.1809 15.4591C18.9216 15.3228 18.6623 15.1762 18.4319 14.9944C17.6478 14.3748 17.4215 13.1501 17.8083 12.2558C18.1664 11.4297 18.5018 10.5767 18.6973 9.70101C18.9196 8.7014 20.6996 -1.52605 11.1904 0.192294C4.982 1.31376 7.12624 10.3309 7.52957 11.2789C7.91027 12.1753 7.90409 12.9291 7.57279 13.7945C7.30321 14.5029 6.91634 15.0378 6.22904 15.3806C4.93261 16.0291 3.65677 16.719 2.36858 17.386C0.777893 18.2122 -0.00407572 19.5195 3.99029e-05 21.3184C0.00827115 24.6105 0.00209771 27.9047 0.00415553 31.1968C0.00415553 31.3868 -0.0143648 31.583 0.0267915 31.7648C0.144087 32.2749 0.473337 32.5826 1.00219 32.5888C1.53105 32.595 1.86853 32.2894 1.99406 31.7834C2.04345 31.583 2.02287 31.3641 2.02287 31.1534C2.02287 28.388 2.02287 25.6225 2.02493 22.8571C2.02493 22.6588 2.04345 22.4605 2.05785 22.1652C2.7431 22.7084 3.33781 23.204 3.95927 23.6605C4.39141 23.9785 4.56015 24.3689 4.55398 24.9038C4.53546 27.0352 4.54369 29.1687 4.5478 31.3001C4.5478 32.1345 4.93879 32.6157 5.58494 32.5971C6.2064 32.5785 6.5624 32.1159 6.56446 31.3042C6.56857 29.1935 6.53976 27.0827 6.57475 24.972C6.59533 23.7286 6.14467 22.7724 5.16103 22.0289C4.25559 21.3453 3.37897 20.6224 2.38093 19.8293C2.7287 19.5815 2.98181 19.3605 3.2699 19.2056C4.53134 18.5344 5.8113 17.8941 7.06656 17.2126C7.40405 17.0287 7.59954 17.0618 7.865 17.3344C8.98033 18.4848 10.108 19.6207 11.2583 20.736C11.5464 21.0148 11.5814 21.2565 11.4662 21.6158C10.785 23.7637 10.1306 25.922 9.44539 28.0679C9.27871 28.5945 9.36514 29.0096 9.74995 29.3917C10.5155 30.1456 11.2666 30.9139 12.0341 31.6656C12.6309 32.2501 13.1248 32.246 13.7298 31.6574C14.4541 30.951 15.1476 30.2137 15.8843 29.5218C16.3782 29.0592 16.4831 28.5718 16.2753 27.9295C15.5941 25.8249 14.9398 23.7121 14.3018 21.5952C14.238 21.3804 14.2607 21.0251 14.3985 20.8826C15.518 19.7095 16.6663 18.5633 17.831 17.4315C17.9462 17.32 18.259 17.2787 18.4072 17.353C19.2365 17.7681 20.0596 18.1977 20.8807 18.6294C21.5556 18.208 22.2512 17.8218 22.9364 17.4212C21.6914 16.752 20.43 16.1159 19.1809 15.457V15.4591ZM13.0054 1.67106C15.6929 1.67106 17.8701 4.29401 17.8701 7.53036C17.8701 10.7667 15.6909 13.3897 13.0054 13.3897C10.32 13.3897 8.14074 10.7667 8.14074 7.53036C8.14074 4.29401 10.32 1.67106 13.0054 1.67106ZM12.7564 19.3977C11.6184 18.2514 10.4311 17.0556 9.24784 15.8618C9.15936 15.773 9.08322 15.6739 8.99885 15.5768C9.16965 15.203 9.33427 14.8457 9.50096 14.4801C11.8716 16.4319 14.0302 16.1262 15.8514 14.8106C16.0427 15.1534 16.2321 15.4922 16.4049 15.7999C15.2032 16.9854 14.0117 18.1585 12.7564 19.3977Z" fill="#191C1C"/>
</g>
<defs>
<clipPath id="clip0_60_5374">
<rect width="64" height="64" fill="white" transform="translate(0 0.000244141)"/>
</clipPath>
</defs>
</svg>
