<svg width="60" height="64" viewBox="0 0 60 64" fill="none" xmlns="http://www.w3.org/2000/svg">
<g clip-path="url(#clip0_60_5385)">
<path d="M52.7286 24.9386C56.7491 24.9584 60.0181 28.1994 60 32.1472C59.982 36.1249 56.6486 39.3857 52.6402 39.3459C48.6398 39.3082 45.3527 36.0097 45.4049 32.0896C45.4592 28.0961 48.7141 24.9167 52.7286 24.9386ZM52.7165 37.9936C55.9675 37.9817 58.6277 35.3564 58.6438 32.1472C58.6599 28.948 55.9092 26.2274 52.6864 26.2552C49.4475 26.283 46.7772 28.9222 46.7571 32.1155C46.737 35.3226 49.4576 38.0035 52.7186 37.9916L52.7165 37.9936Z" fill="#191C1C"/>
<path d="M21.32 10.7973C21.4927 11.2222 21.6455 11.6015 21.8243 12.0404C18.9953 13.1724 16.5179 14.7988 14.3881 16.9117C12.2723 19.0108 10.6529 21.4533 9.51565 24.2474C9.07764 24.0767 8.69387 23.9257 8.25586 23.755C10.8438 17.6763 15.1656 13.3868 21.32 10.7953V10.7973Z" fill="#191C1C"/>
<path d="M38.2378 12.0305C38.4106 11.6016 38.5573 11.2382 38.7341 10.8013C44.8301 13.3551 49.1399 17.6028 51.76 23.6537C51.3521 23.8245 50.9784 23.9814 50.5283 24.17C48.0811 18.4964 44.0083 14.4592 38.2378 12.0305Z" fill="#191C1C"/>
<path d="M24.366 6.7859V5.55665C24.9809 5.55665 25.5856 5.52687 26.1824 5.56658C26.6485 5.59637 27.0021 5.47126 27.2774 5.10189C27.3397 5.01849 27.4341 4.9609 27.4984 4.87948C28.2901 3.85677 29.2625 3.25903 30.6288 3.5291C30.7775 3.55889 30.9925 3.51917 31.103 3.42584C31.8846 2.77249 32.6461 2.0973 33.5101 1.34665C33.1062 1.31885 32.845 1.30098 32.5336 1.27913V0.000244141H35.9955V3.42385H34.7397V2.13305C34.5268 2.28 34.3962 2.35546 34.2816 2.45078C33.8356 2.83207 33.3554 3.18555 32.9596 3.61449C32.1016 4.54188 31.1251 5.09197 29.799 4.86161C29.6162 4.82983 29.3871 4.99267 29.1942 5.09594C29.0877 5.15154 28.9933 5.25481 28.925 5.35608C27.8239 7.05001 26.1683 7.06193 24.364 6.78192L24.366 6.7859Z" fill="#191C1C"/>
<path d="M32.2061 6.07495H33.4337V14.1554H32.2061V6.07495Z" fill="#191C1C"/>
<path d="M29.4214 8.13623H30.6932C30.6932 9.14504 30.6932 10.136 30.6932 11.1269C30.6932 12.1179 30.6932 13.1187 30.6932 14.1573H29.4214V8.13623Z" fill="#191C1C"/>
<path d="M27.8581 14.1673H26.6184V10.0029H27.8581V14.1673Z" fill="#191C1C"/>
<path d="M36.5442 60.1477V58.9105H41.9129V60.1477H36.5442Z" fill="#191C1C"/>
<path d="M52.0756 27.6215H53.4359C53.4359 28.1755 53.4359 28.7296 53.4359 29.2817C53.4359 30.3222 53.448 31.3628 53.4239 32.4034C53.4198 32.6 53.3294 32.8721 53.1827 32.9753C52.3288 33.583 51.4488 34.151 50.5747 34.7328C50.3839 34.8599 50.189 34.9811 49.9599 35.126C49.7148 34.7686 49.4817 34.429 49.2185 34.0437C50.0664 33.4758 50.8962 32.9495 51.6859 32.3697C51.8807 32.2267 52.0515 31.9189 52.0576 31.6806C52.0937 30.352 52.0736 29.0215 52.0736 27.6195L52.0756 27.6215Z" fill="#191C1C"/>
<path d="M7.29364 24.9385C3.27114 24.9286 0.0201851 28.1238 9.26932e-05 32.1074C-0.0199997 36.0712 3.22895 39.32 7.23738 39.3478C11.2498 39.3736 14.5792 36.103 14.5792 32.1332C14.5792 28.1715 11.3161 24.9524 7.29364 24.9405V24.9385ZM5.01315 37.5427C5.71639 37.8306 6.48593 37.9895 7.29364 37.9895C7.70353 37.9895 8.10538 37.9478 8.49115 37.8704C8.10337 37.9518 7.70353 37.9935 7.29364 37.9955C6.48995 37.9975 5.72041 37.8366 5.01315 37.5427Z" fill="#191C1C"/>
<path d="M25.8671 39.9496C26.6045 40.3468 26.725 41.018 26.1343 41.6356C25.2221 42.5908 24.3179 43.552 23.3796 44.4833C23.1244 44.7375 22.7889 44.954 22.4473 45.0791C20.6732 45.7344 18.889 46.3659 17.1007 46.9835C16.287 47.2635 15.3587 47.3966 15.5436 48.743C12.7648 46.3262 10.8299 43.548 9.48972 40.3329C9.04769 40.5077 8.66593 40.6586 8.25806 40.8214C9.69667 44.3483 11.8124 47.3112 14.6756 49.7458C15.0473 50.0616 15.2 50.3535 15.0995 50.8559C14.5892 53.4514 14.109 56.0509 13.6348 58.6524C13.3093 60.4317 13.0079 62.217 12.6965 64.0003H47.376C47.3559 63.8355 47.3459 63.6686 47.3157 63.5058C46.5261 59.2263 45.7425 54.9448 44.9328 50.6693C44.8624 50.2939 44.989 50.1172 45.2261 49.8749C46.4116 48.6636 47.6412 47.4859 48.7202 46.1872C50.0322 44.6104 51.0027 42.8132 51.7642 40.8572C51.3362 40.6923 50.9545 40.5434 50.5325 40.3806C49.1944 43.5957 47.2695 46.3381 44.6253 48.6357C44.5651 48.4709 44.4867 48.3557 44.4887 48.2425C44.5008 47.6428 44.1713 47.3986 43.6207 47.2139C41.5894 46.5307 39.5721 45.798 37.5588 45.0652C37.2735 44.9619 36.9822 44.7971 36.7712 44.5866C35.7947 43.6076 34.8423 42.6027 33.888 41.6039C33.3354 41.024 33.466 40.3289 34.1672 39.9576C36.4035 38.772 37.8562 36.9609 38.4931 34.5362C38.6016 34.1232 38.7483 33.8809 39.1763 33.6962C40.858 32.9694 41.2337 30.7949 39.9318 29.5219C39.757 29.3512 39.56 29.2042 39.3712 29.0453C39.4937 28.7733 39.5982 28.5469 39.7007 28.3185C40.3035 26.9582 40.6651 25.5483 40.3698 24.0648C39.9518 21.9618 38.5052 20.7425 36.5984 19.9422C36.3252 19.827 36.0218 19.6523 35.8671 19.4179C35.3205 18.5859 34.6193 17.9365 33.7051 17.5592C30.7294 16.3339 27.7316 16.2525 24.7419 17.5155C22.2263 18.5779 20.6812 20.4387 20.2231 23.1136C19.9157 24.9108 20.1327 26.6861 20.6832 28.4198C20.7997 28.7892 20.7696 28.9977 20.3959 29.2201C19.4998 29.7503 19.124 30.6042 19.2104 31.6051C19.3009 32.6437 19.8755 33.4142 20.8841 33.7538C21.3121 33.8988 21.4628 34.1152 21.5653 34.5144C22.1841 36.951 23.6428 38.7542 25.8691 39.9516M33.5705 43.2084C34.2878 43.9551 34.9549 44.6402 35.6099 45.3373C35.6842 45.4167 35.7425 45.5736 35.7164 45.6689C35.2603 47.3688 34.7901 49.0667 34.2999 50.846C33.1224 49.865 32.0173 48.9436 30.8882 48.0003C31.7843 46.4017 32.6563 44.8428 33.5725 43.2084H33.5705ZM35.5918 54.4305C35.5663 55.9927 34.912 57.2365 33.6288 58.1619C33.5625 58.2095 33.4901 58.2473 33.3575 58.3307C32.9295 56.1522 31.9691 54.0591 32.9657 51.8091L33.0762 51.5748C33.6951 52.0872 34.332 52.6154 35.0372 53.1992C35.212 52.5916 35.3627 52.0673 35.5154 51.543C35.5416 51.547 35.5677 51.551 35.5938 51.553C35.5938 52.5121 35.6059 53.4713 35.5918 54.4285V54.4305ZM27.8562 40.8373H32.2303C32.2163 41.7528 32.4212 42.7199 31.8044 43.6493C31.1634 44.6144 30.6511 45.6629 30.0242 46.781C29.2627 45.4127 28.465 44.1855 27.8984 42.8629C27.6452 42.2691 27.8562 41.4807 27.8562 40.8373ZM38.8327 32.3617V30.4017C39.54 30.9815 39.554 31.6349 38.8327 32.3617ZM21.2579 32.455C20.7596 32.2128 20.5647 31.8553 20.5466 31.3946C20.5265 30.8981 20.7475 30.5367 21.2579 30.2329V32.455ZM22.7748 33.7379C22.5659 32.3696 22.6121 30.9537 22.6563 29.5636C22.6844 28.67 23.4158 28.2093 24.1753 27.8916C25.9514 27.1469 27.8341 27.1568 29.7107 27.2462C31.3141 27.3216 32.7588 26.9681 34.0105 25.9534C34.2999 25.719 34.5631 25.4549 34.9709 25.0836C35.5195 26.0447 36.0559 26.9264 36.5361 27.8359C37.7919 30.215 37.7638 32.7013 36.8657 35.1439C35.7586 38.1564 32.6201 39.9 29.2205 39.5703C25.9374 39.2506 23.2571 36.9053 22.7748 33.7399V33.7379ZM24.5229 45.2697C25.1297 44.5806 25.7847 43.9333 26.4839 43.2064C27.4021 44.8448 28.2741 46.3997 29.1703 47.9983C28.0471 48.9356 26.944 49.8551 25.7646 50.84C25.5958 50.2403 25.4451 49.7121 25.2984 49.1838C25.0011 48.1035 24.6917 47.0232 24.4204 45.937C24.3682 45.7305 24.3923 45.4167 24.5209 45.2717L24.5229 45.2697ZM26.6888 58.3664C25.9816 57.8144 25.3145 57.3159 24.6836 56.7777C24.555 56.6685 24.5189 56.4044 24.5168 56.2118C24.5048 54.631 24.5088 53.0503 24.5088 51.4894C24.6615 51.9918 24.8283 52.5419 25.0252 53.1893C25.7144 52.6214 26.3633 52.0891 26.9842 51.5788C28.1455 53.8883 27.167 56.0608 26.6908 58.3664H26.6888ZM14.2798 62.6161C14.5329 61.226 14.774 59.8796 15.0212 58.5332C15.5978 55.4015 16.1845 52.2699 16.7531 49.1362C16.8335 48.6933 16.9882 48.4133 17.4644 48.2545C19.0999 47.7103 20.7154 47.1126 22.3408 46.5387C22.5136 46.4771 22.6945 46.4354 23.0581 46.3302C23.0581 48.0797 23.0401 49.7419 23.0622 51.402C23.0883 53.2568 23.1345 55.1096 23.2128 56.9624C23.2229 57.2246 23.3957 57.5542 23.6026 57.721C25.4049 59.1627 27.2313 60.5747 29.0497 61.9966C29.2727 62.1713 29.4937 62.35 29.8233 62.6161H14.2798ZM29.7208 60.7018C29.1823 60.3404 28.6679 59.9372 28.1837 59.5063C28.0411 59.3772 27.9406 59.0853 27.9768 58.8966C28.1717 57.8759 28.4349 56.8671 28.6318 55.8484C28.7041 55.475 28.8749 55.3618 29.2305 55.4035C29.4817 55.4333 29.7348 55.4313 29.988 55.4333C30.8681 55.4399 31.4099 55.8775 31.6135 56.746C31.7963 57.5363 31.9711 58.3287 32.168 59.2084C32.1017 59.2819 32.0113 59.409 31.8928 59.5043C31.3844 59.9094 30.8861 60.3284 30.3477 60.6899C30.199 60.7911 29.8654 60.7991 29.7208 60.6998V60.7018ZM45.7123 62.209C45.7344 62.3282 45.7264 62.4533 45.7344 62.6161H30.2171C32.3549 60.946 34.3481 59.3732 36.3633 57.8283C36.733 57.5443 36.8777 57.2563 36.8857 56.7916C36.9521 53.3343 37.0485 49.8769 37.1389 46.3381C38.2078 46.7194 39.2325 47.0828 40.2552 47.4462C41.0469 47.7282 41.8345 48.0281 42.6362 48.2783C43.026 48.3994 43.2028 48.594 43.2751 48.9992C44.0748 53.4038 44.8966 57.8044 45.7103 62.209H45.7123Z" fill="#191C1C"/>
</g>
<defs>
<clipPath id="clip0_60_5385">
<rect width="60" height="64" fill="white" transform="translate(0 0.000244141)"/>
</clipPath>
</defs>
</svg>
