<svg width="199" height="48" viewBox="0 0 199 48" fill="none" xmlns="http://www.w3.org/2000/svg">
<g clip-path="url(#clip0_2007_252)">
<path d="M57.1562 27.34C57.728 27.9843 58.3601 28.4916 59.0607 28.858C59.7614 29.2244 60.5304 29.4056 61.3679 29.4056C62.4027 29.4056 63.2403 29.1278 63.8845 28.5681C64.5287 28.0084 64.8549 27.2756 64.8549 26.3737C64.8549 25.5563 64.6536 24.8959 64.259 24.3886C63.8603 23.8813 63.2966 23.4504 62.5638 23.0961C61.831 22.7418 60.9935 22.3915 60.0472 22.0452C59.4876 21.8519 58.8634 21.5902 58.1749 21.256C57.4864 20.9218 56.8301 20.503 56.206 19.9957C55.5818 19.4883 55.0665 18.8642 54.6557 18.1234C54.245 17.3825 54.0437 16.4805 54.0437 15.4296C54.0437 14.2257 54.3538 13.1667 54.9819 12.2487C55.606 11.3347 56.4516 10.618 57.5146 10.1026C58.5816 9.58716 59.7895 9.32947 61.1465 9.32947C62.5034 9.32947 63.6429 9.57106 64.6334 10.0542C65.624 10.5374 66.4615 11.1454 67.15 11.8782C67.8385 12.6111 68.366 13.3761 68.7324 14.1693L65.6642 15.9128C65.3622 15.3531 64.9958 14.8297 64.565 14.3465C64.1341 13.8633 63.6349 13.4727 63.0631 13.1828C62.4913 12.8929 61.831 12.748 61.078 12.748C60.0231 12.748 59.25 12.9896 58.7547 13.4727C58.2595 13.9559 58.0139 14.5237 58.0139 15.1679C58.0139 15.7477 58.191 16.2712 58.5454 16.7342C58.8997 17.1973 59.4553 17.6321 60.2083 18.0428C60.9613 18.4535 61.9397 18.8723 63.1477 19.3031C63.8362 19.5407 64.5207 19.8427 65.1971 20.2091C65.8736 20.5755 66.4897 21.0265 67.0373 21.566C67.5849 22.1056 68.0318 22.7458 68.3781 23.4867C68.7203 24.2275 68.8935 25.0973 68.8935 26.0838C68.8935 27.1387 68.6841 28.0849 68.2653 28.9265C67.8466 29.764 67.2788 30.4727 66.5702 31.0404C65.8615 31.6122 65.0562 32.0511 64.1664 32.3651C63.2725 32.6752 62.3423 32.8322 61.372 32.8322C60.0593 32.8322 58.8393 32.5664 57.7078 32.043C56.5764 31.5196 55.5859 30.8109 54.7363 29.9291C53.8867 29.0473 53.2143 28.089 52.719 27.0542L55.5617 25.053C56.057 25.9348 56.5885 26.6998 57.1602 27.3441L57.1562 27.34Z" fill="white"/>
<path d="M93.7492 32.345H90.23V23.3055C90.23 22.1861 90.0287 21.3526 89.6341 20.805C89.2355 20.2574 88.6154 19.9836 87.7779 19.9836C87.1739 19.9836 86.6545 20.1125 86.2116 20.3701C85.7687 20.6278 85.4264 21.0063 85.1768 21.5016C84.9312 21.9969 84.8063 22.6008 84.8063 23.3095V32.349H81.3194V23.3095C81.3194 22.1901 81.1181 21.3566 80.7235 20.809C80.3248 20.2614 79.6967 19.9876 78.835 19.9876C78.2552 19.9876 77.7438 20.1165 77.3009 20.3742C76.858 20.6319 76.5158 21.0104 76.2661 21.5056C76.0165 22.0009 75.8957 22.6049 75.8957 23.3135V32.353H72.4731V17.5033H75.8957V19.6655C76.3466 18.8481 76.9184 18.228 77.6069 17.8093C78.2955 17.3905 79.1249 17.1812 80.0913 17.1812C81.1664 17.1812 82.0643 17.4066 82.785 17.8576C83.5058 18.3086 84.0292 18.9649 84.3513 19.8266C84.8909 18.9448 85.5512 18.2844 86.3364 17.8415C87.1216 17.3986 88.0114 17.1812 89.002 17.1812C90.077 17.1812 90.9588 17.4026 91.6474 17.8415C92.3359 18.2844 92.8594 18.9327 93.2137 19.7944C93.568 20.656 93.7452 21.6868 93.7452 22.8948V32.353L93.7492 32.345Z" fill="white"/>
<path d="M100.723 29.003C100.961 29.3573 101.287 29.623 101.71 29.7922C102.128 29.9653 102.608 30.0498 103.147 30.0498C103.856 30.0498 104.496 29.9049 105.068 29.615C105.639 29.3251 106.094 28.9103 106.441 28.3708C106.783 27.8312 106.956 27.187 106.956 26.434L107.472 28.3708C107.472 29.317 107.198 30.1143 106.65 30.7585C106.103 31.4028 105.414 31.8819 104.585 32.196C103.755 32.51 102.91 32.6631 102.052 32.6631C101.126 32.6631 100.264 32.4819 99.4709 32.1154C98.6736 31.749 98.0374 31.2095 97.5663 30.5008C97.0912 29.7922 96.8577 28.9305 96.8577 27.9198C96.8577 26.4783 97.361 25.3308 98.3757 24.4812C99.3863 23.6316 100.82 23.2048 102.668 23.2048C103.658 23.2048 104.512 23.3135 105.233 23.5269C105.954 23.7443 106.549 23.994 107.025 24.2839C107.496 24.5738 107.83 24.8395 108.023 25.0731V26.8488C107.355 26.3777 106.646 26.0314 105.893 25.814C105.14 25.6006 104.343 25.4918 103.505 25.4918C102.773 25.4918 102.181 25.5845 101.73 25.7656C101.279 25.9468 100.941 26.2005 100.711 26.5226C100.486 26.8448 100.373 27.2434 100.373 27.7185C100.373 28.1936 100.49 28.6406 100.727 28.9949L100.723 29.003ZM97.8482 18.9125C98.5367 18.5059 99.4105 18.1072 100.461 17.7167C101.516 17.3301 102.744 17.1368 104.142 17.1368C105.346 17.1368 106.425 17.314 107.371 17.6683C108.317 18.0227 109.054 18.5461 109.581 19.2347C110.109 19.9232 110.371 20.7647 110.371 21.7512V32.3409H106.948V22.4317C106.948 21.9566 106.872 21.57 106.723 21.268C106.574 20.966 106.352 20.7204 106.062 20.5272C105.772 20.3339 105.434 20.193 105.044 20.1084C104.657 20.0238 104.238 19.9796 103.783 19.9796C103.095 19.9796 102.442 20.0601 101.83 20.2211C101.218 20.3822 100.695 20.5755 100.264 20.801C99.8333 21.0264 99.4991 21.2157 99.2615 21.3647L97.8401 18.9125H97.8482Z" fill="white"/>
<path d="M117.896 32.345H114.441V17.4952H117.896V32.345ZM121.431 20.6238C121.142 20.495 120.779 20.4305 120.348 20.4305C119.768 20.4305 119.293 20.5795 118.927 20.8815C118.561 21.1835 118.299 21.5982 118.138 22.1257C117.977 22.6532 117.896 23.2732 117.896 23.9819L116.732 23.3055C116.732 22.1217 116.954 21.0748 117.393 20.1567C117.832 19.2427 118.403 18.5099 119.104 17.9623C119.805 17.4147 120.529 17.1409 121.282 17.1409C121.822 17.1409 122.325 17.2254 122.8 17.3986C123.276 17.5717 123.682 17.8616 124.029 18.2683L122.317 21.2076C122.015 20.9499 121.721 20.7567 121.427 20.6278L121.431 20.6238Z" fill="white"/>
<path d="M132.778 17.4912V20.5594H124.351V17.4912H132.778ZM130.294 12.3292V32.345H126.871V12.3292H130.294Z" fill="white"/>
<path d="M148.792 9.74414V24.755C148.792 26.132 149.166 27.2514 149.923 28.1131C150.676 28.9747 151.775 29.4056 153.217 29.4056C154.658 29.4056 155.782 28.9747 156.526 28.1131C157.267 27.2514 157.642 26.132 157.642 24.755V9.74414H161.483V24.916C161.483 26.1642 161.286 27.2796 160.887 28.258C160.489 29.2365 159.917 30.07 159.176 30.7585C158.435 31.447 157.557 31.9745 156.547 32.3409C155.536 32.7073 154.425 32.8885 153.221 32.8885C152.017 32.8885 150.905 32.7073 149.895 32.3409C148.884 31.9745 148.01 31.447 147.282 30.7585C146.549 30.07 145.985 29.2365 145.586 28.258C145.188 27.2796 144.99 26.1642 144.99 24.916V9.74414H148.8H148.792Z" fill="white"/>
<path d="M174.908 20.8171C174.457 20.2574 173.768 19.9796 172.842 19.9796C172.174 19.9796 171.594 20.1124 171.098 20.3822C170.603 20.652 170.221 21.0385 169.951 21.5459C169.681 22.0532 169.548 22.6371 169.548 23.3055V32.345H166.029V17.4952H169.548V19.7863C170.019 18.9045 170.631 18.2482 171.372 17.8173C172.113 17.3865 172.991 17.1731 174.002 17.1731C175.681 17.1731 176.961 17.6845 177.843 18.7072C178.725 19.7299 179.168 21.1231 179.168 22.8867V32.345H175.584V23.3055C175.584 22.2062 175.358 21.3808 174.908 20.8211V20.8171Z" fill="white"/>
<path d="M184.156 10.0664C184.595 9.65567 185.11 9.45435 185.69 9.45435C186.314 9.45435 186.842 9.6597 187.273 10.0664C187.704 10.4771 187.917 10.9804 187.917 11.5844C187.917 12.1883 187.7 12.6675 187.273 13.0863C186.842 13.505 186.314 13.7144 185.69 13.7144C185.11 13.7144 184.599 13.505 184.156 13.0863C183.713 12.6675 183.496 12.1642 183.496 11.5844C183.496 11.0046 183.717 10.4771 184.156 10.0664ZM187.434 17.4913V32.341H183.979V17.4913H187.434Z" fill="white"/>
<path d="M198.604 17.4912V20.5594H190.176V17.4912H198.604ZM196.119 12.3292V32.345H192.697V12.3292H196.119Z" fill="white"/>
<path d="M0.169189 29.2647V13.2231L23.229 0L45.556 14.2377L36.0575 18.9608L44.9238 24.9805L42.665 28.3104L28.097 18.4253L37.3862 13.8029L23.1163 4.70296L4.1957 15.5544V22.1176L22.1298 11.246L24.2155 14.6927L0.169189 29.2647Z" fill="#D9EAF8"/>
<path d="M25.6247 48L23.2168 44.7707L28.3708 40.9294L23.0759 37.5673L12.9412 43.136L0 35.2038L23.1967 21.4089L42.4998 34.0361L40.2973 37.4063L23.0961 26.1562L7.79129 35.2561L13.0499 38.4813L23.2209 32.8925L35.4655 40.6637L25.6247 48Z" fill="#D9EAF8"/>
</g>
<defs>
<clipPath id="clip0_2007_252">
<rect width="198.603" height="48" fill="white"/>
</clipPath>
</defs>
</svg>
