<svg width="76" height="64" viewBox="0 0 76 64" fill="none" xmlns="http://www.w3.org/2000/svg">
<g clip-path="url(#clip0_60_5401)">
<path d="M12.8667 26.1907H27.649L26.7703 25.312V27.3213C26.7703 27.4414 26.7703 27.5614 26.7703 27.6815C26.7703 27.8485 26.7586 27.9041 26.7 28.0154C26.58 28.2439 26.3661 28.3552 26.1289 28.3523C25.1419 28.3376 24.1548 28.3523 23.1678 28.3523C20.2769 28.3523 17.3861 28.3669 14.4952 28.3523C14.4571 28.3523 14.419 28.3523 14.3839 28.3523C14.2667 28.3523 14.1964 28.3376 14.0852 28.282C13.9006 28.1912 13.7805 28.0184 13.7454 27.784C13.76 27.8836 13.7454 27.746 13.7483 27.702C13.7513 27.6581 13.7483 27.6083 13.7483 27.5614V25.315C13.7483 24.1844 11.991 24.1815 11.991 25.315V27.4765C11.991 27.9451 12.0437 28.3933 12.2575 28.8209C12.6265 29.5531 13.3705 30.0217 14.1759 30.0979C15.1659 30.1916 16.1969 30.1096 17.1898 30.1096C20.1597 30.1096 23.1385 30.1711 26.1084 30.1096C27.4909 30.0803 28.5189 29.0201 28.5277 27.6435C28.5336 26.8673 28.5277 26.0882 28.5277 25.312C28.5277 24.8375 28.1264 24.4333 27.649 24.4333H12.8667C11.7362 24.4333 11.7332 26.1907 12.8667 26.1907Z" fill="#191C1C"/>
<path d="M30.9734 26.1907H45.7557L44.877 25.312V27.3213C44.877 27.4414 44.877 27.5614 44.877 27.6815C44.877 27.8485 44.8653 27.9041 44.8067 28.0154C44.6866 28.2439 44.4728 28.3552 44.2356 28.3523C43.2485 28.3376 42.2615 28.3523 41.2744 28.3523C38.3836 28.3523 35.4927 28.3669 32.6019 28.3523C32.5638 28.3523 32.5257 28.3523 32.4906 28.3523C32.3734 28.3523 32.3031 28.3376 32.1918 28.282C32.0073 28.1912 31.8872 28.0184 31.8521 27.784C31.8667 27.8836 31.8521 27.746 31.855 27.702C31.8579 27.6581 31.855 27.6083 31.855 27.5614V25.315C31.855 24.1844 30.0977 24.1815 30.0977 25.315V27.4765C30.0977 27.9451 30.1504 28.3933 30.3642 28.8209C30.7332 29.5531 31.4772 30.0217 32.2826 30.0979C33.2726 30.1916 34.3036 30.1096 35.2965 30.1096C38.2664 30.1096 41.2452 30.1711 44.2151 30.1096C45.5975 30.0803 46.6256 29.0201 46.6344 27.6435C46.6402 26.8673 46.6344 26.0882 46.6344 25.312C46.6344 24.8375 46.2331 24.4333 45.7557 24.4333H30.9734C29.8428 24.4333 29.8399 26.1907 30.9734 26.1907Z" fill="#191C1C"/>
<path d="M49.2266 26.1907H64.0089L63.1302 25.312V27.3213C63.1302 27.4414 63.1302 27.5614 63.1302 27.6815C63.1302 27.8485 63.1185 27.9041 63.0599 28.0154C62.9398 28.2439 62.726 28.3552 62.4888 28.3523C61.5017 28.3376 60.5147 28.3523 59.5276 28.3523C56.6368 28.3523 53.7459 28.3669 50.8551 28.3523C50.817 28.3523 50.7789 28.3523 50.7438 28.3523C50.6266 28.3523 50.5563 28.3376 50.445 28.282C50.2605 28.1912 50.1404 28.0184 50.1053 27.784C50.1199 27.8836 50.1053 27.746 50.1082 27.702C50.1111 27.6581 50.1082 27.6083 50.1082 27.5614V25.315C50.1082 24.1844 48.3508 24.1815 48.3508 25.315V27.4765C48.3508 27.9451 48.4035 28.3933 48.6174 28.8209C48.9864 29.5531 49.7304 30.0217 50.5358 30.0979C51.5258 30.1916 52.5568 30.1096 53.5497 30.1096C56.5196 30.1096 59.4983 30.1711 62.4683 30.1096C63.8507 30.0803 64.8788 29.0201 64.8876 27.6435C64.8934 26.8673 64.8876 26.0882 64.8876 25.312C64.8876 24.8375 64.4863 24.4333 64.0089 24.4333H49.2266C48.096 24.4333 48.0931 26.1907 49.2266 26.1907Z" fill="#191C1C"/>
<path d="M63.8623 54.7155H49.08L49.9587 55.5942V53.585C49.9587 53.4649 49.9587 53.3448 49.9587 53.2247C49.9587 53.0578 49.9704 53.0021 50.029 52.8908C50.1491 52.6624 50.3629 52.5511 50.6001 52.554C51.5872 52.5686 52.5742 52.554 53.5613 52.554C56.4521 52.554 59.343 52.5393 62.2338 52.554C62.2719 52.554 62.31 52.554 62.3451 52.554C62.4623 52.554 62.5326 52.5686 62.6439 52.6243C62.8284 52.7151 62.9485 52.8879 62.9836 53.1222C62.969 53.0226 62.9836 53.1603 62.9807 53.2042C62.9778 53.2481 62.9807 53.2979 62.9807 53.3448V55.5913C62.9807 56.7219 64.7381 56.7248 64.7381 55.5913V53.4297C64.7381 52.9611 64.6853 52.513 64.4715 52.0854C64.1025 51.3531 63.3585 50.8845 62.5531 50.8084C61.5631 50.7146 60.5321 50.7966 59.5392 50.7966C56.5693 50.7966 53.5906 50.7351 50.6206 50.7966C49.2382 50.8259 48.2101 51.8862 48.2013 53.2628C48.1955 54.039 48.2013 54.8181 48.2013 55.5942C48.2013 56.0687 48.6026 56.4729 49.08 56.4729H63.8623C64.9929 56.4729 64.9958 54.7155 63.8623 54.7155Z" fill="#191C1C"/>
<path d="M45.7556 54.7155H30.9733L31.852 55.5942V53.585C31.852 53.4649 31.852 53.3448 31.852 53.2247C31.852 53.0578 31.8637 53.0021 31.9223 52.8908C32.0424 52.6624 32.2562 52.5511 32.4934 52.554C33.4805 52.5686 34.4675 52.554 35.4546 52.554C38.3454 52.554 41.2363 52.5393 44.1271 52.554C44.1652 52.554 44.2033 52.554 44.2384 52.554C44.3556 52.554 44.4259 52.5686 44.5372 52.6243C44.7217 52.7151 44.8418 52.8879 44.8769 53.1222C44.8623 53.0226 44.8769 53.1603 44.874 53.2042C44.8711 53.2481 44.874 53.2979 44.874 53.3448V55.5913C44.874 56.7219 46.6314 56.7248 46.6314 55.5913V53.4297C46.6314 52.9611 46.5787 52.513 46.3648 52.0854C45.9958 51.3531 45.2518 50.8845 44.4464 50.8084C43.4564 50.7146 42.4254 50.7966 41.4325 50.7966C38.4626 50.7966 35.4839 50.7351 32.5139 50.7966C31.1315 50.8259 30.1034 51.8862 30.0946 53.2628C30.0888 54.039 30.0946 54.8181 30.0946 55.5942C30.0946 56.0687 30.4959 56.4729 30.9733 56.4729H45.7556C46.8862 56.4729 46.8891 54.7155 45.7556 54.7155Z" fill="#191C1C"/>
<path d="M27.5027 54.7155H12.7204L13.5991 55.5942V53.585C13.5991 53.4649 13.5991 53.3448 13.5991 53.2247C13.5991 53.0578 13.6108 53.0021 13.6694 52.8908C13.7895 52.6624 14.0033 52.5511 14.2405 52.554C15.2276 52.5686 16.2146 52.554 17.2017 52.554C20.0925 52.554 22.9834 52.5393 25.8742 52.554C25.9123 52.554 25.9504 52.554 25.9855 52.554C26.1027 52.554 26.173 52.5686 26.2843 52.6243C26.4688 52.7151 26.5889 52.8879 26.624 53.1222C26.6094 53.0226 26.624 53.1603 26.6211 53.2042C26.6182 53.2481 26.6211 53.2979 26.6211 53.3448V55.5913C26.6211 56.7219 28.3784 56.7248 28.3784 55.5913V53.4297C28.3784 52.9611 28.3257 52.513 28.1119 52.0854C27.7429 51.3531 26.9989 50.8845 26.1935 50.8084C25.2035 50.7146 24.1725 50.7966 23.1796 50.7966C20.2097 50.7966 17.2309 50.7351 14.261 50.7966C12.8786 50.8259 11.8505 51.8862 11.8417 53.2628C11.8359 54.039 11.8417 54.8181 11.8417 55.5942C11.8417 56.0687 12.243 56.4729 12.7204 56.4729H27.5027C28.6333 56.4729 28.6362 54.7155 27.5027 54.7155Z" fill="#191C1C"/>
<path d="M24.8901 47.4664H15.1836L16.0623 48.3451V32.2653L15.1836 33.144H24.8901L24.0114 32.2653V48.3451C24.0114 49.4757 25.7688 49.4786 25.7688 48.3451V32.2653C25.7688 31.7908 25.3675 31.3866 24.8901 31.3866H15.1836C14.7091 31.3866 14.3049 31.7879 14.3049 32.2653V48.3451C14.3049 48.8196 14.7062 49.2238 15.1836 49.2238H24.8901C26.0206 49.2238 26.0236 47.4664 24.8901 47.4664Z" fill="#191C1C"/>
<path d="M42.9968 47.61H33.2903L34.169 48.4886V32.4088L33.2903 33.2875H42.9968L42.1181 32.4088V48.4886C42.1181 49.6192 43.8754 49.6221 43.8754 48.4886V32.4088C43.8754 31.9343 43.4742 31.5302 42.9968 31.5302H33.2903C32.8158 31.5302 32.4116 31.9314 32.4116 32.4088V48.4886C32.4116 48.9631 32.8129 49.3673 33.2903 49.3673H42.9968C44.1273 49.3673 44.1303 47.61 42.9968 47.61Z" fill="#191C1C"/>
<path d="M61.3933 47.61H51.6868L52.5655 48.4886V32.4088L51.6868 33.2875H61.3933L60.5146 32.4088V48.4886C60.5146 49.6192 62.2719 49.6221 62.2719 48.4886V32.4088C62.2719 31.9343 61.8707 31.5302 61.3933 31.5302H51.6868C51.2123 31.5302 50.8081 31.9314 50.8081 32.4088V48.4886C50.8081 48.9631 51.2094 49.3673 51.6868 49.3673H61.3933C62.5238 49.3673 62.5267 47.61 61.3933 47.61Z" fill="#191C1C"/>
<path d="M71.3985 61.8152V59.062C71.3985 58.5875 70.9972 58.1833 70.5198 58.1833H8.68135C7.84368 58.1833 7.00308 58.1658 6.1654 58.1833C6.13026 58.1833 6.09218 58.1833 6.05703 58.1833C5.58255 58.1833 5.17835 58.5846 5.17835 59.062V61.8152L6.05703 60.9365H1.85695C1.38246 60.9365 0.978271 61.3378 0.978271 61.8152V63.1186C0.978271 63.5931 1.37953 63.9973 1.85695 63.9973H74.1429C74.6174 63.9973 75.0216 63.596 75.0216 63.1186V61.8152C75.0216 61.3407 74.6203 60.9365 74.1429 60.9365H70.5227C69.3922 60.9365 69.3892 62.6939 70.5227 62.6939H74.1429L73.2642 61.8152V63.1186L74.1429 62.2399H1.85695L2.73563 63.1186V61.8152L1.85695 62.6939H6.05703C6.53152 62.6939 6.93571 62.2926 6.93571 61.8152V59.062L6.05703 59.9407H67.8955C68.7302 59.9407 69.5767 59.9759 70.4114 59.9407C70.4466 59.9407 70.4847 59.9407 70.5198 59.9407L69.6411 59.062V61.8152C69.6411 62.9458 71.3985 62.9487 71.3985 61.8152Z" fill="#191C1C"/>
<path d="M50.0964 5.75562V2.48401H60.5263V5.75562H58.9389V12.2754L50.0964 5.75562Z" fill="#191C1C"/>
<path d="M37.9179 0.123214C36.8137 0.834943 35.7095 1.5496 34.6053 2.26133C31.9546 3.97182 29.304 5.68525 26.6504 7.39574C23.4549 9.45771 20.2594 11.5226 17.064 13.5846C14.302 15.3683 11.5371 17.152 8.77511 18.9357C7.42781 19.8056 6.05707 20.6462 4.73026 21.5454C4.71269 21.5571 4.69219 21.5688 4.67461 21.5835C3.95703 22.0462 4.2177 23.2207 5.11688 23.2207H68.5516C69.4098 23.2207 70.2709 23.2412 71.1291 23.2207C71.1642 23.2207 71.2023 23.2207 71.2374 23.2207C72.1395 23.2207 72.3944 22.0492 71.6797 21.5835C70.5931 20.8747 69.5035 20.1629 68.4169 19.4541C65.7926 17.7407 63.1712 16.0302 60.5468 14.3168C57.3836 12.2519 54.2204 10.187 51.0571 8.12212L42.8532 2.76511C41.5264 1.89814 40.223 0.966745 38.8581 0.158361C38.8406 0.146645 38.823 0.134929 38.8054 0.123214C38.4071 -0.137461 37.833 0.0441327 37.6045 0.439538C37.3556 0.867161 37.5225 1.38265 37.9209 1.6404C39.0075 2.3492 40.0971 3.06093 41.1837 3.76973L49.0537 8.90707C52.217 10.972 55.3802 13.0369 58.5435 15.1018C61.2791 16.8884 64.0118 18.6721 66.7474 20.4588L69.4537 22.2249C69.8813 22.5032 70.3002 22.8165 70.7424 23.0655C70.76 23.0772 70.7776 23.0889 70.7952 23.1007L71.2374 21.4634H7.80271C6.94453 21.4634 6.0805 21.4282 5.22525 21.4634C5.19011 21.4634 5.15203 21.4634 5.11688 21.4634L5.55915 23.1007C6.66336 22.3889 7.76756 21.6743 8.87177 20.9625C11.5224 19.252 14.1731 17.5386 16.8267 15.8281C20.0222 13.7662 23.2177 11.7013 26.4131 9.6393C29.1751 7.85558 31.94 6.07187 34.702 4.28815C36.0493 3.41826 37.4171 2.5718 38.7468 1.67847C38.7644 1.66676 38.7849 1.65504 38.8025 1.6404C39.2008 1.38265 39.3648 0.861304 39.1188 0.439538C38.8874 0.0441327 38.3163 -0.134532 37.9179 0.123214Z" fill="#191C1C"/>
<path d="M38.2168 19.0734C35.9586 19.0558 33.8293 17.6206 33.0677 15.5089C32.2564 13.2624 32.9184 10.8402 34.7577 9.30539C36.4917 7.8585 39.113 7.69448 41.0754 8.88363C42.0156 9.45477 42.7449 10.2778 43.234 11.3205C43.6939 12.3017 43.8345 13.5904 43.6119 14.6565C43.073 17.2369 40.8148 19.0558 38.2197 19.0763C37.0892 19.0851 37.0862 20.8424 38.2197 20.8337C41.2775 20.8102 43.9897 18.8859 45.0471 16.0244C46.1044 13.1628 45.1671 9.88239 42.8474 8.00495C40.4779 6.0865 37.1067 5.77311 34.4736 7.36937C31.8405 8.96564 30.5371 12.0352 31.1112 15.0285C31.7556 18.388 34.8397 20.8102 38.2168 20.8366C39.3474 20.8454 39.3503 19.088 38.2168 19.0792V19.0734Z" fill="#191C1C"/>
<path d="M38.1992 17.3248C40.3134 17.3248 42.0273 15.6109 42.0273 13.4967C42.0273 11.3825 40.3134 9.66858 38.1992 9.66858C36.085 9.66858 34.3711 11.3825 34.3711 13.4967C34.3711 15.6109 36.085 17.3248 38.1992 17.3248Z" fill="#191C1C"/>
<path d="M4.90022 29.3686C5.7802 29.3686 6.49356 28.6552 6.49356 27.7752C6.49356 26.8952 5.7802 26.1819 4.90022 26.1819C4.02025 26.1819 3.30688 26.8952 3.30688 27.7752C3.30688 28.6552 4.02025 29.3686 4.90022 29.3686Z" fill="#191C1C"/>
<path d="M3.30672 34.7285C4.18669 34.7285 4.90005 34.0152 4.90005 33.1352C4.90005 32.2552 4.18669 31.5419 3.30672 31.5419C2.42674 31.5419 1.71338 32.2552 1.71338 33.1352C1.71338 34.0152 2.42674 34.7285 3.30672 34.7285Z" fill="#191C1C"/>
<path d="M3.30672 40.522C4.18669 40.522 4.90005 39.8086 4.90005 38.9287C4.90005 38.0487 4.18669 37.3353 3.30672 37.3353C2.42674 37.3353 1.71338 38.0487 1.71338 38.9287C1.71338 39.8086 2.42674 40.522 3.30672 40.522Z" fill="#191C1C"/>
<path d="M5.04353 46.4618C5.92351 46.4618 6.63687 45.7485 6.63687 44.8685C6.63687 43.9885 5.92351 43.2751 5.04353 43.2751C4.16356 43.2751 3.4502 43.9885 3.4502 44.8685C3.4502 45.7485 4.16356 46.4618 5.04353 46.4618Z" fill="#191C1C"/>
<path d="M7.65047 51.6753C8.53044 51.6753 9.2438 50.962 9.2438 50.082C9.2438 49.202 8.53044 48.4886 7.65047 48.4886C6.77049 48.4886 6.05713 49.202 6.05713 50.082C6.05713 50.962 6.77049 51.6753 7.65047 51.6753Z" fill="#191C1C"/>
<path d="M71.0997 29.3686C71.9797 29.3686 72.693 28.6552 72.693 27.7752C72.693 26.8952 71.9797 26.1819 71.0997 26.1819C70.2197 26.1819 69.5063 26.8952 69.5063 27.7752C69.5063 28.6552 70.2197 29.3686 71.0997 29.3686Z" fill="#191C1C"/>
<path d="M72.6929 34.7285C73.5729 34.7285 74.2863 34.0152 74.2863 33.1352C74.2863 32.2552 73.5729 31.5419 72.6929 31.5419C71.813 31.5419 71.0996 32.2552 71.0996 33.1352C71.0996 34.0152 71.813 34.7285 72.6929 34.7285Z" fill="#191C1C"/>
<path d="M72.6929 40.522C73.5729 40.522 74.2863 39.8086 74.2863 38.9287C74.2863 38.0487 73.5729 37.3353 72.6929 37.3353C71.813 37.3353 71.0996 38.0487 71.0996 38.9287C71.0996 39.8086 71.813 40.522 72.6929 40.522Z" fill="#191C1C"/>
<path d="M70.9561 46.4618C71.8361 46.4618 72.5495 45.7485 72.5495 44.8685C72.5495 43.9885 71.8361 43.2751 70.9561 43.2751C70.0762 43.2751 69.3628 43.9885 69.3628 44.8685C69.3628 45.7485 70.0762 46.4618 70.9561 46.4618Z" fill="#191C1C"/>
<path d="M68.3465 51.6753C69.2265 51.6753 69.9398 50.962 69.9398 50.082C69.9398 49.202 69.2265 48.4886 68.3465 48.4886C67.4665 48.4886 66.7532 49.202 66.7532 50.082C66.7532 50.962 67.4665 51.6753 68.3465 51.6753Z" fill="#191C1C"/>
</g>
<defs>
<clipPath id="clip0_60_5401">
<rect width="74.0433" height="64" fill="white" transform="translate(0.978271 0.000244141)"/>
</clipPath>
</defs>
</svg>
